<svg width="332" height="298" viewBox="0 0 332 298" fill="none" xmlns="http://www.w3.org/2000/svg">
<defs>
<linearGradient id="paint0_linear" x1="133.249" y1="143.374" x2="195.244" y2="143.374" gradientUnits="userSpaceOnUse">
<stop stop-color="#808080" stop-opacity="0.25"/>
<stop offset="0.53514" stop-color="#808080" stop-opacity="0.12"/>
<stop offset="1" stop-color="#808080" stop-opacity="0.1"/>
</linearGradient>
<clipPath id="clip0">
<rect width="332" height="298" fill="white"/>
</clipPath>
</defs>
<g clip-path="url(#clip0)">
<path d="M167.078 -17.2754L47.4286 57.4986C47.4286 57.4986 47.4286 211.72 167.078 295.841C286.727 211.72 286.727 57.4986 286.727 57.4986L167.078 -17.2754Z" fill="#333333"/>
<path d="M166.657 4.17096L62.4663 68.5891C62.4663 68.5891 62.4663 201.452 166.657 273.922C270.847 201.452 270.847 68.5891 270.847 68.5891L166.657 4.17096Z" fill="#F7F0F5"/>
<path opacity="0.04" d="M167.279 4.17096L165.498 5.27213V272.665C166.089 273.085 166.68 273.506 167.279 273.922C271.469 201.451 271.469 68.5891 271.469 68.5891L167.279 4.17096Z" fill="#EFE9ED"/>
<g opacity="0.7">
<path opacity="0.7" d="M141.433 134.708L161.074 152.797L185.423 117.506L195.244 125.729L161.074 169.242L133.249 137.997L141.433 134.708Z" fill="url(#paint0_linear)"/>
</g>
<path d="M146.069 135.794L162.001 150.468L184.573 117.118L192.54 123.788L162.001 163.808L139.43 138.462L146.069 135.794Z" fill="#912765"/>
<path opacity="0.5" d="M63.8541 18.6133C63.5347 18.4736 63.2776 18.2207 63.1317 17.9029C62.9859 17.585 62.9615 17.2244 63.0631 16.8896C63.0795 16.8383 63.0899 16.7852 63.0939 16.7315V16.7315C63.1032 16.5781 63.0631 16.4258 62.9795 16.2971C62.8959 16.1684 62.7733 16.0702 62.6298 16.017C62.4863 15.9639 62.3296 15.9585 62.1828 16.0018C62.0361 16.0451 61.9071 16.1348 61.8151 16.2575V16.2575C61.7834 16.301 61.757 16.3481 61.7363 16.3979C61.5972 16.7188 61.3455 16.9771 61.0292 17.1236C60.7128 17.2701 60.3539 17.2947 60.0207 17.1926C59.9696 17.1761 59.9167 17.1657 59.8632 17.1616C59.7106 17.1522 59.559 17.1926 59.4309 17.2765C59.3028 17.3605 59.2051 17.4837 59.1521 17.6279C59.0992 17.7721 59.0939 17.9295 59.137 18.077C59.1801 18.2244 59.2693 18.354 59.3915 18.4465V18.4465C59.4348 18.4783 59.4817 18.5048 59.5312 18.5256C59.8506 18.6654 60.1077 18.9182 60.2536 19.2361C60.3994 19.5539 60.4238 19.9145 60.3222 20.2493C60.3058 20.3006 60.2954 20.3537 60.2913 20.4075V20.4075C60.282 20.5609 60.3222 20.7132 60.4058 20.8418C60.4894 20.9705 60.612 21.0687 60.7555 21.1219C60.899 21.1751 61.0557 21.1804 61.2024 21.1371C61.3492 21.0938 61.4781 21.0042 61.5702 20.8815V20.8815C61.6019 20.8379 61.6283 20.7908 61.649 20.741C61.7881 20.4201 62.0398 20.1619 62.3561 20.0153C62.6725 19.8688 63.0314 19.8442 63.3646 19.9463C63.4157 19.9629 63.4685 19.9733 63.5221 19.9773V19.9773C63.6747 19.9867 63.8263 19.9464 63.9544 19.8624C64.0825 19.7784 64.1802 19.6552 64.2331 19.511C64.2861 19.3669 64.2914 19.2094 64.2483 19.062C64.2052 18.9145 64.1159 18.785 63.9938 18.6925V18.6925C63.9505 18.6607 63.9036 18.6341 63.8541 18.6133V18.6133Z" fill="#912765"/>
<path opacity="0.5" d="M7.45195 144.756C7.13257 144.616 6.87549 144.363 6.72963 144.045C6.58378 143.727 6.55935 143.367 6.66098 143.032C6.67742 142.981 6.68778 142.927 6.69184 142.874V142.874C6.70114 142.72 6.66101 142.568 6.57741 142.439C6.49382 142.311 6.37119 142.212 6.2277 142.159C6.08421 142.106 5.92748 142.101 5.78074 142.144C5.63399 142.187 5.50504 142.277 5.41297 142.4V142.4C5.3813 142.443 5.35486 142.49 5.3342 142.54C5.1951 142.861 4.94341 143.119 4.62706 143.266C4.3107 143.412 3.95176 143.437 3.61856 143.335C3.56748 143.318 3.51464 143.308 3.46112 143.304V143.304C3.30846 143.294 3.15687 143.335 3.02879 143.419C2.90072 143.503 2.80298 143.626 2.75004 143.77C2.69711 143.914 2.6918 144.072 2.73491 144.219C2.77801 144.367 2.86723 144.496 2.98936 144.589C3.03269 144.621 3.0796 144.647 3.12913 144.668C3.44851 144.808 3.7056 145.06 3.85145 145.378C3.9973 145.696 4.02173 146.057 3.9201 146.392C3.90365 146.443 3.8933 146.496 3.88923 146.55V146.55C3.87994 146.703 3.92006 146.855 4.00366 146.984C4.08726 147.113 4.20989 147.211 4.35338 147.264C4.49687 147.317 4.6536 147.323 4.80034 147.279C4.94708 147.236 5.07605 147.146 5.16812 147.024C5.19978 146.98 5.22622 146.933 5.24689 146.883C5.38599 146.562 5.63766 146.304 5.95402 146.158C6.27037 146.011 6.62931 145.986 6.96252 146.089C7.0136 146.105 7.06644 146.116 7.11995 146.12V146.12C7.27261 146.129 7.42421 146.089 7.55228 146.005C7.68036 145.921 7.77809 145.797 7.83103 145.653C7.88396 145.509 7.88927 145.352 7.84616 145.204C7.80306 145.057 7.71384 144.927 7.59172 144.835C7.54839 144.803 7.50147 144.776 7.45195 144.756V144.756Z" fill="#912765"/>
<path opacity="0.5" d="M289.119 100.914C290.399 100.914 291.437 99.8712 291.437 98.585C291.437 97.2989 290.399 96.2562 289.119 96.2562C287.839 96.2562 286.801 97.2989 286.801 98.585C286.801 99.8712 287.839 100.914 289.119 100.914Z" fill="#912765"/>
<path opacity="0.5" d="M46.8985 267.422C48.1786 267.422 49.2164 266.379 49.2164 265.093C49.2164 263.807 48.1786 262.764 46.8985 262.764C45.6183 262.764 44.5806 263.807 44.5806 265.093C44.5806 266.379 45.6183 267.422 46.8985 267.422Z" fill="#912765"/>
<path opacity="0.5" d="M328.523 190.572C329.803 190.572 330.841 189.529 330.841 188.243C330.841 186.957 329.803 185.914 328.523 185.914C327.243 185.914 326.205 186.957 326.205 188.243C326.205 189.529 327.243 190.572 328.523 190.572Z" fill="#912765"/>
<path opacity="0.5" d="M272.079 29.869C271.759 29.7293 271.502 29.4764 271.356 29.1586C271.21 28.8407 271.186 28.4801 271.288 28.1453C271.304 28.094 271.314 28.0409 271.319 27.9872V27.9872C271.328 27.8338 271.288 27.6815 271.204 27.5528C271.121 27.4241 270.998 27.3259 270.854 27.2727C270.711 27.2196 270.554 27.2142 270.407 27.2575C270.261 27.3008 270.132 27.3905 270.04 27.5132C270.008 27.5567 269.982 27.6038 269.961 27.6536C269.822 27.9745 269.57 28.2328 269.254 28.3793C268.937 28.5259 268.578 28.5504 268.245 28.4483C268.194 28.4318 268.141 28.4214 268.088 28.4173V28.4173C267.935 28.4079 267.784 28.4483 267.656 28.5322C267.527 28.6162 267.43 28.7394 267.377 28.8836C267.324 29.0278 267.319 29.1852 267.362 29.3327C267.405 29.4801 267.494 29.6097 267.616 29.7022V29.7022C267.659 29.734 267.706 29.7605 267.756 29.7813C268.075 29.9211 268.332 30.1739 268.478 30.4918C268.624 30.8096 268.648 31.1702 268.547 31.505C268.53 31.5563 268.52 31.6094 268.516 31.6632V31.6632C268.507 31.8166 268.547 31.9689 268.63 32.0975C268.714 32.2262 268.837 32.3244 268.98 32.3776C269.124 32.4308 269.28 32.4361 269.427 32.3928C269.574 32.3495 269.703 32.2599 269.795 32.1372V32.1372C269.826 32.0936 269.853 32.0465 269.874 31.9967C270.013 31.6758 270.264 31.4176 270.581 31.271C270.897 31.1245 271.256 31.0999 271.589 31.202C271.64 31.2186 271.693 31.229 271.747 31.233V31.233C271.899 31.2424 272.051 31.2021 272.179 31.1181C272.307 31.0341 272.405 30.9109 272.458 30.7667C272.511 30.6226 272.516 30.4651 272.473 30.3177C272.43 30.1702 272.341 30.0407 272.218 29.9482C272.175 29.9164 272.128 29.8898 272.079 29.869V29.869Z" fill="#912765"/>
<path opacity="0.5" d="M310.71 273.615C310.391 273.475 310.134 273.222 309.988 272.904C309.842 272.586 309.818 272.226 309.919 271.891C309.936 271.84 309.946 271.787 309.95 271.733V271.733C309.959 271.58 309.919 271.427 309.836 271.299C309.752 271.17 309.629 271.072 309.486 271.019C309.342 270.965 309.186 270.96 309.039 271.003C308.892 271.047 308.763 271.136 308.671 271.259C308.64 271.302 308.613 271.35 308.592 271.399C308.453 271.72 308.202 271.979 307.885 272.125C307.569 272.272 307.21 272.296 306.877 272.194C306.826 272.178 306.773 272.167 306.719 272.163V272.163C306.567 272.154 306.415 272.194 306.287 272.278C306.159 272.362 306.061 272.485 306.008 272.629C305.955 272.774 305.95 272.931 305.993 273.078C306.036 273.226 306.126 273.355 306.248 273.448V273.448C306.291 273.48 306.338 273.506 306.387 273.527C306.707 273.667 306.964 273.92 307.11 274.238C307.256 274.555 307.28 274.916 307.178 275.251C307.162 275.302 307.152 275.355 307.148 275.409V275.409C307.138 275.562 307.178 275.715 307.262 275.843C307.346 275.972 307.468 276.07 307.612 276.123C307.755 276.177 307.912 276.182 308.059 276.139C308.205 276.095 308.334 276.006 308.426 275.883V275.883C308.458 275.839 308.484 275.792 308.505 275.742C308.644 275.422 308.896 275.163 309.212 275.017C309.529 274.87 309.888 274.846 310.221 274.948C310.272 274.964 310.325 274.975 310.378 274.979V274.979C310.531 274.988 310.682 274.948 310.811 274.864C310.939 274.78 311.036 274.657 311.089 274.512C311.142 274.368 311.148 274.211 311.104 274.063C311.061 273.916 310.972 273.786 310.85 273.694C310.807 273.662 310.76 273.636 310.71 273.615V273.615Z" fill="#912765"/>
<path opacity="0.5" d="M4.74773 71.0108C4.42835 70.8711 4.17126 70.6182 4.02541 70.3004C3.87956 69.9825 3.85512 69.6219 3.95676 69.2872C3.9732 69.2358 3.98356 69.1827 3.98762 69.129V69.129C3.99691 68.9756 3.95679 68.8233 3.87319 68.6946C3.78959 68.5659 3.66697 68.4677 3.52348 68.4146C3.37998 68.3614 3.22326 68.356 3.07652 68.3993C2.92977 68.4427 2.80082 68.5323 2.70874 68.655C2.67708 68.6985 2.65064 68.7457 2.62997 68.7954C2.49087 69.1163 2.23919 69.3746 1.92284 69.5211C1.60648 69.6677 1.24754 69.6922 0.914338 69.5901C0.863255 69.5736 0.810413 69.5632 0.756901 69.5591V69.5591C0.604241 69.5498 0.452645 69.5901 0.324571 69.6741C0.196497 69.7581 0.0987538 69.8813 0.0458212 70.0254C-0.0071113 70.1696 -0.0124196 70.327 0.0306836 70.4745C0.0737868 70.6219 0.16301 70.7515 0.285135 70.844V70.844C0.328464 70.8758 0.375379 70.9024 0.424905 70.9231C0.744287 71.0629 1.00137 71.3157 1.14723 71.6336C1.29308 71.9514 1.31751 72.312 1.21588 72.6468C1.19943 72.6981 1.18907 72.7512 1.18501 72.805V72.805C1.17572 72.9584 1.21584 73.1107 1.29944 73.2393C1.38304 73.368 1.50566 73.4662 1.64916 73.5194C1.79265 73.5726 1.94937 73.5779 2.09612 73.5346C2.24286 73.4913 2.37182 73.4017 2.46389 73.279V73.279C2.49556 73.2354 2.522 73.1883 2.54267 73.1385C2.68176 72.8177 2.93344 72.5594 3.2498 72.4128C3.56615 72.2663 3.92509 72.2417 4.25829 72.3438C4.30938 72.3604 4.36222 72.3708 4.41573 72.3749V72.3749C4.56839 72.3842 4.71999 72.3439 4.84806 72.2599C4.97613 72.1759 5.07387 72.0527 5.12681 71.9085C5.17974 71.7644 5.18504 71.6069 5.14194 71.4595C5.09884 71.3121 5.00962 71.1825 4.8875 71.09C4.84417 71.0582 4.79725 71.0316 4.74773 71.0108V71.0108Z" fill="#912765"/>
<path opacity="0.5" d="M30.6732 112.558C31.9534 112.558 32.9911 111.515 32.9911 110.229C32.9911 108.943 31.9534 107.9 30.6732 107.9C29.3931 107.9 28.3553 108.943 28.3553 110.229C28.3553 111.515 29.3931 112.558 30.6732 112.558Z" fill="#912765"/>
<path opacity="0.5" d="M329.682 131.188C330.962 131.188 332 130.145 332 128.859C332 127.573 330.962 126.53 329.682 126.53C328.402 126.53 327.364 127.573 327.364 128.859C327.364 130.145 328.402 131.188 329.682 131.188Z" fill="#912765"/>
<g opacity="0.5">
<path opacity="0.5" d="M226.536 0H225.377V6.59821H226.536V0Z" fill="#912765"/>
<path opacity="0.5" d="M229.24 3.88128V2.71689L222.673 2.71689V3.88128L229.24 3.88128Z" fill="#912765"/>
</g>
<g opacity="0.5">
<path opacity="0.5" d="M230.785 258.495H229.626V265.093H230.785V258.495Z" fill="#912765"/>
<path opacity="0.5" d="M233.489 262.376V261.212H226.922V262.376H233.489Z" fill="#912765"/>
</g>
<g opacity="0.5">
<path opacity="0.5" d="M11.3574 272.467H10.1985V279.066H11.3574V272.467Z" fill="#912765"/>
<path opacity="0.5" d="M14.0616 276.349V275.184H7.49426V276.349H14.0616Z" fill="#912765"/>
</g>
<g opacity="0.5">
<path opacity="0.5" d="M275.212 153.7H274.053V160.298H275.212V153.7Z" fill="#912765"/>
<path opacity="0.5" d="M277.916 157.581V156.416H271.348V157.581H277.916Z" fill="#912765"/>
</g>
<path opacity="0.5" d="M307.356 47.747L309.845 50.0393L313.371 44.829L314.616 45.8711L309.845 52.1235L306.318 48.1638L307.356 47.747Z" fill="#912765"/>
<path d="M236.298 92.8686L227.712 93.2031L228.14 104.294L236.726 103.96L236.298 92.8686Z" fill="#EFE9ED"/>
<path d="M197.566 131.712C197.566 131.712 185.676 126.004 185.866 130.934C186.056 135.863 197.851 139.106 197.851 139.106L197.566 131.712Z" fill="#FFB9B9"/>
<path d="M204.089 173.421C204.089 173.421 198.48 187.216 196.407 197.17C194.334 207.124 191.178 220.823 195.238 230.539C199.298 240.254 210.842 268.808 210.961 271.889C211.08 274.97 209.972 278.099 212.425 278.003C214.879 277.907 228.228 273.685 228.77 271.812C229.312 269.94 224.216 265.202 224.216 265.202L211.631 225.58L224.761 199.768L234.232 238.276L236.087 286.338C236.087 286.338 245.192 283.515 246.513 285.932C246.513 285.932 250.592 280.219 251.111 277.73C251.629 275.242 249.184 227.82 249.184 227.82C249.184 227.82 257.541 173.807 250.795 174.07C244.049 174.332 217.624 158.083 204.089 173.421Z" fill="#EFE9ED"/>
<path d="M212.33 275.538C212.33 275.538 206.107 289.357 205.518 289.997C204.928 290.637 200.873 296.966 203.94 296.847C207.006 296.727 214.247 293.36 219.576 288.215C224.905 283.071 231.932 274.158 231.295 273.565C230.658 272.973 226.293 271.292 226.293 271.292L212.33 275.538Z" fill="#912765"/>
<path d="M237.195 283.209C237.195 283.209 236.82 289.395 235.688 291.907C234.557 294.42 234.699 298.117 237.766 297.997C240.832 297.878 248.758 296.335 248.758 296.335C248.758 296.335 249.228 292.614 248.591 292.022C247.954 291.429 245.239 284.747 246.395 282.851C247.55 280.954 237.195 283.209 237.195 283.209Z" fill="#912765"/>
<path d="M241.732 82.4747C241.732 82.4747 248.269 92.7107 250.817 95.0798C253.366 97.4489 246.196 102.665 246.196 102.665L233.365 104.399C233.365 104.399 233.526 92.668 232.865 91.4595C232.205 90.2511 241.732 82.4747 241.732 82.4747Z" fill="#FFB9B9"/>
<path d="M230.579 95.8683C230.579 95.8683 233.222 100.702 235.675 100.607C238.128 100.511 250.817 95.0798 251.359 93.2074C251.901 91.335 255.562 106.62 255.562 106.62L224.513 161.517L216.94 156.258L220.609 124.026L223.623 106.63L230.579 95.8683Z" fill="#EFE9ED"/>
<path d="M252.505 144.999C251.266 147.602 250.492 150.317 250.6 153.096C250.604 153.219 250.609 153.342 250.62 153.465C250.914 159.168 253.005 165.764 253.755 170.56C254.3 174.001 254.145 176.512 252.141 177.103C247.282 178.526 252.849 179.543 234.051 185.83C215.253 192.116 211.972 186.69 211.925 185.458C211.877 184.225 214.587 174.863 213.95 174.271C213.313 173.679 205.036 182.023 202.535 180.887C200.034 179.75 202.25 173.492 202.25 173.492C202.25 173.492 207.883 160.314 207.764 157.233C207.645 154.152 216.298 139.622 216.298 139.622L222.183 101.132C222.183 101.132 224.446 96.1073 227.488 95.3716C230.531 94.636 233.056 96.3889 233.056 96.3889L227.964 107.695L222.592 127.652L223.491 135.022C223.491 135.022 229.738 121.819 233.84 116.723C237.943 111.626 246.691 99.5603 246.691 99.5603C246.691 99.5603 248.733 92.6371 247.191 90.5682C245.649 88.4931 253.622 88.1825 257.022 96.6894C258.823 101.198 261.749 107.922 263.581 114.182C265.214 119.727 265.985 124.912 264.367 127.875C261.895 132.402 255.675 138.353 252.505 144.999Z" fill="#912765"/>
<path opacity="0.1" d="M264.367 127.875C261.895 132.402 255.675 138.353 252.504 144.999C251.676 142.001 250.666 138.9 250.666 138.9C250.666 138.9 246.791 118.069 258.253 112.686C260.152 112.502 262.052 113.035 263.581 114.182C265.214 119.727 265.985 124.912 264.367 127.875Z" fill="#F7F0F5"/>
<path d="M218.865 126.563L209.147 129.41L195.655 129.935L194.267 141.714L216.44 143.319C216.44 143.319 221.979 127.675 218.865 126.563Z" fill="#912765"/>
<path d="M234.711 166.167C234.711 166.167 221.71 168.334 224.678 172.265C227.645 176.195 239.161 172.063 239.161 172.063L234.711 166.167Z" fill="#FFB9B9"/>
<path opacity="0.1" d="M250.62 153.465C250.914 159.168 253.005 165.764 253.755 170.56C249.614 174.498 245.676 177.972 244.192 178.029C241.125 178.149 236.195 177.724 234.379 178.412C232.563 179.1 231.498 167.416 231.498 167.416C231.498 167.416 232.581 163.671 237.416 161.632C240.68 160.252 246.936 156.509 250.62 153.465Z" fill="#F7F0F5"/>
<path d="M258.11 108.989C258.11 108.989 268.489 107.35 267.928 124.651C267.368 141.952 269.022 152.995 264.848 156.243C260.674 159.491 247.115 174.213 244.049 174.332C240.982 174.452 236.052 174.027 234.236 174.715C232.42 175.402 231.355 163.719 231.355 163.719C231.355 163.719 232.439 159.974 237.274 157.935C242.109 155.895 253.5 148.663 253.405 146.198C253.309 143.734 250.523 135.203 250.523 135.203C250.523 135.203 246.648 114.372 258.11 108.989Z" fill="#912765"/>
<path d="M232.58 97.6315C240.037 97.6315 246.083 91.5578 246.083 84.0655C246.083 76.5732 240.037 70.4995 232.58 70.4995C225.123 70.4995 219.077 76.5732 219.077 84.0655C219.077 91.5578 225.123 97.6315 232.58 97.6315Z" fill="#FFB9B9"/>
<path d="M223.488 64.6214C223.163 64.9033 222.773 65.0999 222.353 65.1938C222.142 65.2315 221.925 65.184 221.749 65.0616C221.573 64.9392 221.453 64.7518 221.414 64.5404C221.105 65.1841 220.757 65.8701 220.126 66.2004C219.495 66.5307 218.52 66.2537 218.429 65.545C218.337 66.0831 218.1 66.5856 217.744 66.9981C217.352 67.373 216.643 67.4676 216.301 67.0465C216.577 68.5631 216.407 70.1228 216.493 71.6621C216.58 73.2014 216.989 74.8333 218.146 75.8456C219.834 77.3217 222.373 76.9574 224.594 76.6777C224.929 76.6069 225.278 76.6261 225.604 76.7333C226.436 77.0892 226.398 78.2521 226.409 79.16C226.477 80.7531 227.104 82.2706 228.18 83.4428C229.256 84.6151 230.711 85.3664 232.286 85.5632C233.167 85.6999 234.067 85.4794 234.786 84.9501C235.417 84.4132 235.739 83.5381 236.461 83.1347C237.636 82.4786 239.062 83.4355 239.921 84.4744C240.78 85.5133 241.627 86.7913 242.958 86.9814C244.718 87.2329 246.059 85.4305 246.717 83.7708C247.625 81.4445 248.059 78.9593 247.996 76.4616C247.932 73.9638 247.372 71.5042 246.347 69.2276C242.671 61.1774 230.114 59.9041 223.488 64.6214Z" fill="#333333"/>
</g>
</svg>
